# xmcd CD database file
#
# Track frame offsets:
#	150
#	15235
#	34712
#	49309
#	67241
#	83114
#	101197
#	117909
#	135804
#	153699
#
# Disc length: 2260 seconds
#
# Revision: 0
# Processed by: cddbd v1.5.2PL0 Copyright (c) Steve Scherf et al.
# Submitted via: NeoAudio 9.9.9
#
DISCID=7f08d20a
DTITLE=Grupo Cupido - Piruetas
DYEAR=2004
DGENRE=Salsa
TTITLE0=Frente Al Mar
TTITLE1=Piruetas De La Vida
TTITLE2=Porque Te Vas
TTITLE3=Mi Verdadero Amor
TTITLE4=Santa Maria
TTITLE5=Mi Hija
TTITLE6=Sin Tavu
TTITLE7=Recuerdos Del Boulevard
TTITLE8=Vuelve Pronto
TTITLE9=Zunga
EXTD=YEAR: 2004
EXTT0=
EXTT1=
EXTT2=
EXTT3=
EXTT4=
EXTT5=
EXTT6=
EXTT7=
EXTT8=
EXTT9=
PLAYORDER=
